<svg height="512" width="512" xmlns="http://www.w3.org/2000/svg"><path d="M424.885 350.154v-42.673a7.516 7.516 0 00-15.03 0v42.673c-41.209 3.806-73.589 38.557-73.589 80.743 0 27.235 13.508 51.359 34.16 66.074H298.05c-19.004 0-36.865-8.387-49.001-23.01-12.138-14.623-17.091-33.723-13.59-52.402l14.193-75.73h79.195c15.193 0 27.554-12.361 27.554-27.554v-99.413a136.997 136.997 0 0131.541-3.675c12.083 0 21.914 9.831 21.914 21.914v40.322a7.516 7.516 0 0015.03 0V237.1c0-15.052-9.053-28.021-21.997-33.773v-39.86a7.516 7.516 0 00-7.515-7.515h-.114V54.963C395.259 24.656 370.603 0 340.297 0c-21.654 0-41.352 12.775-50.185 32.548l-42.72 95.641a7.515 7.515 0 003.796 9.926 7.513 7.513 0 009.926-3.796l42.72-95.641c6.417-14.366 20.73-23.648 36.462-23.648 22.02 0 39.934 17.914 39.934 39.933v100.99H365.2V54.963c0-13.732-11.172-24.904-24.904-24.904a24.933 24.933 0 00-22.739 14.748L145.946 429.002h-16.46L248.852 161.77a7.514 7.514 0 00-3.797-9.926 7.511 7.511 0 00-9.926 3.796L113.026 429.002h-4.052c-9.668 0-17.534 7.866-17.534 17.534v15.706H65.938c-24.548 0-46.001 16.594-52.171 40.354a7.516 7.516 0 007.273 9.403h118.178a7.515 7.515 0 100-15.03H32.12c6.776-11.952 19.575-19.699 33.818-19.699h127.41a23.61 23.61 0 0122.85 17.675l.526 2.024h-47.446a7.516 7.516 0 000 15.03h57.161a7.514 7.514 0 007.273-9.404l-2.968-11.427c-4.422-17.032-19.8-28.927-37.397-28.927h-16.555v-15.706c0-8.636-6.281-15.816-14.511-17.255L331.279 50.936a9.887 9.887 0 019.017-5.848c5.445 0 9.874 4.43 9.874 9.875v100.99h-1.285a7.515 7.515 0 00-7.515 7.515v43.987c-51.977 16.734-92.469 60.79-102.97 116.819l-17.714 94.517c-4.327 23.087 1.796 46.695 16.797 64.769C252.486 501.634 274.561 512 298.05 512h119.32c44.721 0 81.104-36.383 81.104-81.104 0-42.186-32.38-76.936-73.589-80.742zM106.468 462.243v-15.706a2.508 2.508 0 012.505-2.505h50.285a2.508 2.508 0 012.505 2.505v15.706zm249.933-291.261h31.458v29.176a152.164 152.164 0 00-31.458 3.302zm-15.03 52.354v94.938c0 6.906-5.618 12.524-12.525 12.524h-76.378l.704-3.756c9.153-48.828 43.58-87.565 88.199-103.706zm75.999 273.635c-36.434 0-66.074-29.641-66.074-66.074s29.641-66.074 66.074-66.074 66.074 29.641 66.074 66.074-29.641 66.074-66.074 66.074z"/><path d="M417.37 397.143c-18.612 0-33.753 15.142-33.753 33.753 0 18.612 15.142 33.753 33.753 33.753s33.753-15.142 33.753-33.753-15.142-33.753-33.753-33.753zm0 52.477c-10.324 0-18.724-8.4-18.724-18.724s8.4-18.724 18.724-18.724 18.724 8.4 18.724 18.724c0 10.325-8.4 18.724-18.724 18.724z"/></svg>